# xmcd
#
# Track frame offsets:
#	150
#	26593
#	38331
#	53973
#	66940
#	78507
#	88464
#	107721
#	118760
#	132067
#	148907
#	165274
#	178568
#	191960
#	204951
#	220408
#
# Disc length: 3072 seconds
#
# Revision: 2
# Processed by: cddbd v1.5.2PL0 Copyright (c) Steve Scherf et al.
# Submitted via: EasyCDDAExtractor 10.0.1.1
#
DISCID=e70bfe10
DTITLE=Various Artist - Rhythm and Blues Christmas
DYEAR=2004
DGENRE=Christmas
TTITLE0=The Miracles - Silent Night
TTITLE1=Nat King Cole - The Christmas Song
TTITLE2=The Three Degrees - Sleigh Ride
TTITLE3=The Platters - Joy to the World
TTITLE4=Brook Benton - This Time of the Year
TTITLE5=Nat King Cole - Jingle Bells
TTITLE6=Mahalia Jackson - What Child is This
TTITLE7=The Platters - Please Come Home for Christmas
TTITLE8=The Three Degrees - O Christmas Tree
TTITLE9=Brook Benton - When a Child is Born
TTITLE10=Mahalia Jackson - Hark! The Herald Angels Sing
TTITLE11=Jerry Butler - O Holy Night
TTITLE12=The Platters - God Rest ye Merry Gentlemen
TTITLE13=The Platters - Away in a Manger
TTITLE14=The Three Degrees - Winter Wonderland
TTITLE15=Various Artist - Auld Lang Syne
EXTD=YEAR: 2004
EXTT0=
EXTT1=
EXTT2=
EXTT3=
EXTT4=
EXTT5=
EXTT6=
EXTT7=
EXTT8=
EXTT9=
EXTT10=
EXTT11=
EXTT12=
EXTT13=
EXTT14=
EXTT15=
PLAYORDER=
